# xmcd
#
# Track frame offsets:
#	150
#	17237
#	38592
#	56645
#	78460
#	96220
#	113897
#	137987
#	155970
#	179130
#	196082
#	213257
#	230590
#	246207
#	262372
#	282087
#
# Disc length: 3957 seconds
#
# Revision: 1
# Processed by: cddbd v1.5.1PL0 Copyright (c) Steve Scherf et al.
# Submitted via: CDex 1.50Beta5
#
DISCID=f10f7310
DTITLE=アパッチ・インディアン - れげれげ〜レゲエ・フォー・リゾート
DYEAR=2001
DGENRE=ミュージック
TTITLE0=アパッチ・インディアン/BOOM釈迦-楽!
TTITLE1=アスワド/ネクスト・トゥ・ユー[ラフネック・ミックス]
TTITLE2=C.J.ルイス/スウィーツ・フォー・マイ・スウィート[スカ・ストレート・ミックス]
TTITLE3=スティール・パルス/ベター・デイズ
TTITLE4=チャカ・デマス&プライヤーズ/ツイスト&シャウト
TTITLE5=パパ・ウィニー/ユー・アー・マイ・サンシャイン
TTITLE6=バーリントン・リーヴィ/サヴァイヴァル
TTITLE7=NAHKI/FOUR SEASONS LOVER
TTITLE8=コートニー・パイン・フィーチャリング・キャロル・トンプソン/アイム・スティル・ウェイティング
TTITLE9=ヤミ・ボロ/ラヴ・マイ・ウーマン
TTITLE10=グレゴリー・アイザック/ノット・ザ・ウェイ
TTITLE11=ジミー・クリフ/ワイルド・ワールド
TTITLE12=ブジュ・バンタン/メイク・マイ・デイ
TTITLE13=C.J.ルイス/セレブレーション
TTITLE14=ヘヴィ・D.&ザ・ボーイズ/ガール
TTITLE15=バハ・メン/サルヴェーション
EXTD=
EXTT0=
EXTT1=
EXTT2=
EXTT3=
EXTT4=
EXTT5=
EXTT6=
EXTT7=
EXTT8=
EXTT9=
EXTT10=
EXTT11=
EXTT12=
EXTT13=
EXTT14=
EXTT15=
PLAYORDER=
